<svg width="146" height="40" viewBox="0 0 146 40" fill="none" xmlns="http://www.w3.org/2000/svg">
<rect width="146" height="40" rx="5" fill="url(#paint0_linear)"/>
<path d="M20 10.3125C14.6481 10.3125 10.3125 14.6487 10.3125 20C10.3125 25.3512 14.6487 29.6875 20 29.6875C25.3519 29.6875 29.6875 25.3512 29.6875 20C29.6875 14.6487 25.3512 10.3125 20 10.3125ZM24.7581 16.9494L23.1681 24.4419C23.0506 24.9731 22.7344 25.1019 22.2931 24.8519L19.8713 23.0669L18.7031 24.1919C18.5744 24.3206 18.465 24.43 18.215 24.43L18.3869 21.965L22.875 17.91C23.0706 17.7381 22.8319 17.6406 22.5737 17.8125L17.0269 21.3044L14.6363 20.5581C14.1169 20.3944 14.105 20.0387 14.7456 19.7887L24.0856 16.1869C24.5194 16.0306 24.8981 16.2925 24.7575 16.9488L24.7581 16.9494Z" fill="white"/>
<defs>
<linearGradient id="paint0_linear" x1="22" y1="0" x2="125.5" y2="0" gradientUnits="userSpaceOnUse">
<stop stop-color="#1E96C8"/>
<stop offset="1" stop-color="#37AEE2"/>
</linearGradient>
</defs>
</svg>
