<svg width="132" height="38" viewBox="0 0 132 38" fill="none" xmlns="http://www.w3.org/2000/svg">
<rect width="132" height="38" rx="5" fill="white"/>
<path d="M18 9.3125C13.1833 9.3125 9.28125 13.6487 9.28125 19C9.28125 24.3512 13.1839 28.6875 18 28.6875C22.8167 28.6875 26.7188 24.3512 26.7188 19C26.7188 13.6487 22.8161 9.3125 18 9.3125ZM22.2823 15.9494L20.8513 23.4419C20.7456 23.9731 20.4609 24.1019 20.0638 23.8519L17.8841 22.0669L16.8328 23.1919C16.7169 23.3206 16.6185 23.43 16.3935 23.43L16.5482 20.965L20.5875 16.91C20.7636 16.7381 20.5487 16.6406 20.3164 16.8125L15.3242 20.3044L13.1726 19.5581C12.7052 19.3944 12.6945 19.0387 13.2711 18.7887L21.6771 15.1869C22.0674 15.0306 22.4083 15.2925 22.2817 15.9488L22.2823 15.9494Z" fill="#295093"/>
</svg>
